# xmcd
#
# Track frame offsets: 
#        150
#        8292
#        21456
#        46502
#        61377
#        81055
#        97443
#        112786
#        130579
#        146771
#        165806
#
# Disc length: 2708 seconds
#
# Revision: 0
# Processed by: cddbd v1.5.2PL0 Copyright (c) Steve Scherf et al.
# Submitted via: ExactAudioCopyFreeDBPlugin 1.0
#
DISCID=7b0a920b
DTITLE=Willis Earl Beal - Acousmatic Sorcery
DYEAR=2012
DGENRE=Blues
TTITLE0=Nepenenoyka
TTITLE1=Take Me Away
TTITLE2=Cosmic Queries
TTITLE3=Evening's Kiss
TTITLE4=Sambo Joe From The Rainbow
TTITLE5=Ghost Robot
TTITLE6=Swing On Low
TTITLE7=Monotony
TTITLE8=Bright Copper'Noon
TTITLE9=Away My Silent Lover
TTITLE10=Angel Chorus
EXTD=
EXTT0=
EXTT1=
EXTT2=
EXTT3=
EXTT4=
EXTT5=
EXTT6=
EXTT7=
EXTT8=
EXTT9=
EXTT10=
PLAYORDER=
